<svg width="60" height="60" viewBox="0 0 60 60" fill="none" xmlns="http://www.w3.org/2000/svg">
<g id="alarm_24px">
<path id="icon/action/alarm_24px" fill-rule="evenodd" clip-rule="evenodd" d="M19.8614 8.60268L16.6584 4.76318L5.14014 14.3722L8.34289 18.2117L19.8614 8.60268ZM43.3413 4.76378L54.8598 14.3728L51.6568 18.2123L40.1383 8.60328L43.3413 4.76378ZM31.2501 20.2373H27.5001V35.2373L39.3751 42.3623L41.2501 39.2873L31.2501 33.3623V20.2373ZM30.0001 10.2373C17.5751 10.2373 7.50009 20.3123 7.50009 32.7373C7.50009 45.1623 17.5751 55.2373 30.0001 55.2373C42.4251 55.2373 52.5001 45.1623 52.5001 32.7373C52.5001 20.3123 42.4251 10.2373 30.0001 10.2373ZM12.5001 32.7373C12.5001 42.3873 20.3501 50.2373 30.0001 50.2373C39.6501 50.2373 47.5001 42.3873 47.5001 32.7373C47.5001 23.0873 39.6501 15.2373 30.0001 15.2373C20.3501 15.2373 12.5001 23.0873 12.5001 32.7373Z" fill="white"/>
</g>
</svg>
